%TF.GenerationSoftware,KiCad,Pcbnew,9.0.0*%
%TF.CreationDate,2025-08-04T23:41:06+05:30*%
%TF.ProjectId,signalscope,7369676e-616c-4736-936f-70652e6b6963,rev?*%
%TF.SameCoordinates,Original*%
%TF.FileFunction,Plated,1,2,PTH,Drill*%
%TF.FilePolarity,Positive*%
%FSLAX46Y46*%
G04 Gerber Fmt 4.6, Leading zero omitted, Abs format (unit mm)*
G04 Created by KiCad (PCBNEW 9.0.0) date 2025-08-04 23:41:06*
%MOMM*%
%LPD*%
G01*
G04 APERTURE LIST*
%TA.AperFunction,ViaDrill*%
%ADD10C,0.300000*%
%TD*%
%TA.AperFunction,ComponentDrill*%
%ADD11C,0.600000*%
%TD*%
%TA.AperFunction,ComponentDrill*%
%ADD12C,0.900000*%
%TD*%
%TA.AperFunction,ComponentDrill*%
%ADD13C,1.040000*%
%TD*%
G04 APERTURE END LIST*
D10*
X124000000Y-36450000D03*
X124525000Y-108150000D03*
X125500000Y-68900000D03*
X126850000Y-127850000D03*
X128300000Y-73530000D03*
X129737500Y-37537500D03*
X131700000Y-51550000D03*
X131950000Y-60550000D03*
X132700000Y-52750000D03*
X132975000Y-64125000D03*
X136300000Y-101650000D03*
X136800000Y-99750000D03*
X138950000Y-124400000D03*
X141500000Y-55300000D03*
X142100000Y-129350000D03*
X143000000Y-53625000D03*
X144550000Y-121350000D03*
X145050000Y-48925000D03*
X145400000Y-111650000D03*
X145600000Y-64775000D03*
X145675000Y-62000000D03*
X146350000Y-111600000D03*
X147450000Y-111600000D03*
X148400000Y-111550000D03*
X149475000Y-68750000D03*
X149750000Y-78100000D03*
X149864265Y-89885735D03*
X150700000Y-58550000D03*
X150850000Y-56000000D03*
X151350000Y-90750000D03*
X152050000Y-61000000D03*
X152050000Y-64300000D03*
X152150000Y-39050000D03*
X152400000Y-90850000D03*
X153250000Y-65500000D03*
X153600000Y-90850000D03*
X154850000Y-90900000D03*
X156000000Y-90950000D03*
X156050000Y-67750000D03*
X156550000Y-81000000D03*
X159000000Y-88250000D03*
X159600000Y-87450000D03*
X160275000Y-86550000D03*
X162400000Y-67000000D03*
X162850000Y-72650000D03*
X163600000Y-132200000D03*
X163850000Y-46050000D03*
X165225000Y-59675000D03*
X166200000Y-131300000D03*
X169525000Y-65900000D03*
X177350000Y-64375000D03*
X178000000Y-47350000D03*
X179300000Y-56650000D03*
X182350000Y-74650000D03*
X182627000Y-135123000D03*
X183825000Y-81800000D03*
D11*
%TO.C,U7*%
X180225000Y-82715000D03*
X180225000Y-83975000D03*
X180225000Y-85225000D03*
D12*
%TO.C,NEO6M*%
X121624000Y-102218000D03*
X121624000Y-104758000D03*
X121624000Y-107298000D03*
X121624000Y-109838000D03*
%TO.C,TFT_display*%
X124282000Y-126250000D03*
X126822000Y-126250000D03*
X129362000Y-126250000D03*
X131902000Y-126250000D03*
X134442000Y-126250000D03*
X136982000Y-126250000D03*
X139522000Y-126250000D03*
X142062000Y-126250000D03*
X148690000Y-126250000D03*
X151230000Y-126250000D03*
X153770000Y-126250000D03*
%TO.C,DS1307_RTC*%
X154650000Y-42970000D03*
X154650000Y-45510000D03*
X154650000Y-48050000D03*
X154650000Y-50590000D03*
X154650000Y-53130000D03*
%TO.C,TFT_display*%
X156300000Y-126250000D03*
%TO.C,MAX98357a*%
X163090000Y-126250000D03*
X165630000Y-126250000D03*
X168170000Y-126250000D03*
X170710000Y-126250000D03*
X173250000Y-126250000D03*
X175790000Y-126250000D03*
X178330000Y-126250000D03*
%TO.C,U4*%
X180562500Y-70125000D03*
X180587500Y-72375000D03*
X183127500Y-72375000D03*
X183137500Y-70025000D03*
%TO.C,D3*%
X183235000Y-49200000D03*
%TO.C,D2*%
X183280000Y-59675000D03*
%TO.C,D3*%
X185775000Y-49200000D03*
%TO.C,D2*%
X185820000Y-59675000D03*
D13*
%TO.C,ESP32_WROOM_DEVKIT*%
X122500000Y-37970000D03*
X122500000Y-40510000D03*
X122500000Y-43050000D03*
X122500000Y-45590000D03*
X122500000Y-48130000D03*
X122500000Y-50670000D03*
X122500000Y-53210000D03*
X122500000Y-55750000D03*
X122500000Y-58290000D03*
X122500000Y-60830000D03*
X122500000Y-63370000D03*
X122500000Y-65910000D03*
X122500000Y-68450000D03*
X122500000Y-70990000D03*
X122500000Y-73530000D03*
X122500000Y-76070000D03*
X122500000Y-78610000D03*
X122500000Y-81150000D03*
X122500000Y-83690000D03*
X147900000Y-37970000D03*
X147900000Y-40510000D03*
X147900000Y-43050000D03*
X147900000Y-45590000D03*
X147900000Y-48130000D03*
X147900000Y-50670000D03*
X147900000Y-53210000D03*
X147900000Y-55750000D03*
X147900000Y-58290000D03*
X147900000Y-60830000D03*
X147900000Y-63370000D03*
X147900000Y-65910000D03*
X147900000Y-68450000D03*
X147900000Y-70990000D03*
X147900000Y-73530000D03*
X147900000Y-76070000D03*
X147900000Y-78610000D03*
X147900000Y-81150000D03*
X147900000Y-83690000D03*
%TO.C,ICM20948*%
X159600000Y-69690000D03*
X159600000Y-72230000D03*
X159600000Y-74770000D03*
X159600000Y-77310000D03*
X159600000Y-79850000D03*
X159600000Y-82390000D03*
X172300000Y-69690000D03*
X172300000Y-72230000D03*
X172300000Y-74770000D03*
X172300000Y-77310000D03*
X172300000Y-79850000D03*
X172300000Y-82390000D03*
M02*
