%TF.GenerationSoftware,KiCad,Pcbnew,9.0.0*%
%TF.CreationDate,2025-08-04T23:41:09+05:30*%
%TF.ProjectId,signalscope,7369676e-616c-4736-936f-70652e6b6963,rev?*%
%TF.SameCoordinates,Original*%
%TF.FileFunction,Soldermask,Top*%
%TF.FilePolarity,Negative*%
%FSLAX46Y46*%
G04 Gerber Fmt 4.6, Leading zero omitted, Abs format (unit mm)*
G04 Created by KiCad (PCBNEW 9.0.0) date 2025-08-04 23:41:09*
%MOMM*%
%LPD*%
G01*
G04 APERTURE LIST*
G04 Aperture macros list*
%AMRoundRect*
0 Rectangle with rounded corners*
0 $1 Rounding radius*
0 $2 $3 $4 $5 $6 $7 $8 $9 X,Y pos of 4 corners*
0 Add a 4 corners polygon primitive as box body*
4,1,4,$2,$3,$4,$5,$6,$7,$8,$9,$2,$3,0*
0 Add four circle primitives for the rounded corners*
1,1,$1+$1,$2,$3*
1,1,$1+$1,$4,$5*
1,1,$1+$1,$6,$7*
1,1,$1+$1,$8,$9*
0 Add four rect primitives between the rounded corners*
20,1,$1+$1,$2,$3,$4,$5,0*
20,1,$1+$1,$4,$5,$6,$7,0*
20,1,$1+$1,$6,$7,$8,$9,0*
20,1,$1+$1,$8,$9,$2,$3,0*%
G04 Aperture macros list end*
%ADD10C,1.500000*%
%ADD11RoundRect,0.102000X-0.780000X-0.780000X0.780000X-0.780000X0.780000X0.780000X-0.780000X0.780000X0*%
%ADD12C,1.764000*%
%ADD13RoundRect,0.250000X-0.450000X0.325000X-0.450000X-0.325000X0.450000X-0.325000X0.450000X0.325000X0*%
%ADD14RoundRect,0.250000X-0.350000X-0.450000X0.350000X-0.450000X0.350000X0.450000X-0.350000X0.450000X0*%
%ADD15R,1.800000X1.800000*%
%ADD16C,1.800000*%
%ADD17RoundRect,0.250000X-0.450000X0.350000X-0.450000X-0.350000X0.450000X-0.350000X0.450000X0.350000X0*%
%ADD18C,0.900000*%
G04 APERTURE END LIST*
D10*
%TO.C,TFT_display*%
X124282000Y-126250000D03*
X126822000Y-126250000D03*
X129362000Y-126250000D03*
X131902000Y-126250000D03*
X134442000Y-126250000D03*
X136982000Y-126250000D03*
X139522000Y-126250000D03*
X142062000Y-126250000D03*
X148690000Y-126250000D03*
X151230000Y-126250000D03*
X153770000Y-126250000D03*
X156300000Y-126250000D03*
%TD*%
D11*
%TO.C,ESP32_WROOM_DEVKIT*%
X122500000Y-37970000D03*
D12*
X122500000Y-40510000D03*
X122500000Y-43050000D03*
X122500000Y-45590000D03*
X122500000Y-48130000D03*
X122500000Y-50670000D03*
X122500000Y-53210000D03*
X122500000Y-55750000D03*
X122500000Y-58290000D03*
X122500000Y-60830000D03*
X122500000Y-63370000D03*
X122500000Y-65910000D03*
X122500000Y-68450000D03*
X122500000Y-70990000D03*
X122500000Y-73530000D03*
X122500000Y-76070000D03*
X122500000Y-78610000D03*
X122500000Y-81150000D03*
X122500000Y-83690000D03*
X147900000Y-37970000D03*
X147900000Y-40510000D03*
X147900000Y-43050000D03*
X147900000Y-45590000D03*
X147900000Y-48130000D03*
X147900000Y-50670000D03*
X147900000Y-53210000D03*
X147900000Y-55750000D03*
X147900000Y-58290000D03*
X147900000Y-60830000D03*
X147900000Y-63370000D03*
X147900000Y-65910000D03*
X147900000Y-68450000D03*
X147900000Y-70990000D03*
X147900000Y-73530000D03*
X147900000Y-76070000D03*
X147900000Y-78610000D03*
X147900000Y-81150000D03*
X147900000Y-83690000D03*
%TD*%
D13*
%TO.C,D1*%
X166500000Y-144225000D03*
X166500000Y-146275000D03*
%TD*%
D10*
%TO.C,MAX98357a*%
X163090000Y-126250000D03*
X165630000Y-126250000D03*
X168170000Y-126250000D03*
X170710000Y-126250000D03*
X173250000Y-126250000D03*
X175790000Y-126250000D03*
X178330000Y-126250000D03*
%TD*%
D14*
%TO.C,R2*%
X183500000Y-45100000D03*
X185500000Y-45100000D03*
%TD*%
D12*
%TO.C,ICM20948*%
X159600000Y-69690000D03*
X159600000Y-72230000D03*
X159600000Y-74770000D03*
X159600000Y-77310000D03*
X159600000Y-79850000D03*
X159600000Y-82390000D03*
X172300000Y-69690000D03*
X172300000Y-72230000D03*
X172300000Y-74770000D03*
X172300000Y-77310000D03*
X172300000Y-79850000D03*
X172300000Y-82390000D03*
%TD*%
D10*
%TO.C,NEO6M*%
X121624000Y-102218000D03*
X121624000Y-104758000D03*
X121624000Y-107298000D03*
X121624000Y-109838000D03*
%TD*%
D15*
%TO.C,D2*%
X183280000Y-59675000D03*
D16*
X185820000Y-59675000D03*
%TD*%
D10*
%TO.C,U4*%
X180587500Y-72375000D03*
X180562500Y-70125000D03*
X183137500Y-70025000D03*
X183127500Y-72375000D03*
%TD*%
D17*
%TO.C,R1*%
X169500000Y-144250000D03*
X169500000Y-146250000D03*
%TD*%
D14*
%TO.C,R3*%
X183500000Y-55525000D03*
X185500000Y-55525000D03*
%TD*%
D18*
%TO.C,U7*%
X180225000Y-85225000D03*
X180225000Y-82715000D03*
X180225000Y-83975000D03*
%TD*%
D15*
%TO.C,D3*%
X183235000Y-49200000D03*
D16*
X185775000Y-49200000D03*
%TD*%
D10*
%TO.C,DS1307_RTC*%
X154650000Y-42970000D03*
X154650000Y-45510000D03*
X154650000Y-48050000D03*
X154650000Y-50590000D03*
X154650000Y-53130000D03*
%TD*%
M02*
