<?xml version="1.0" encoding="UTF-8" standalone="no"?>
<!-- Created with Inkscape (http://www.inkscape.org/) -->

<svg
   width="210mm"
   height="297mm"
   viewBox="0 0 210 297"
   version="1.1"
   id="svg1"
   sodipodi:docname="stickers.svg"
   inkscape:version="1.4 (86a8ad7, 2024-10-11)"
   xml:space="preserve"
   xmlns:inkscape="http://www.inkscape.org/namespaces/inkscape"
   xmlns:sodipodi="http://sodipodi.sourceforge.net/DTD/sodipodi-0.dtd"
   xmlns="http://www.w3.org/2000/svg"
   xmlns:svg="http://www.w3.org/2000/svg"><sodipodi:namedview
     id="namedview1"
     pagecolor="#ffffff"
     bordercolor="#000000"
     borderopacity="0.25"
     inkscape:showpageshadow="2"
     inkscape:pageopacity="0.0"
     inkscape:pagecheckerboard="0"
     inkscape:deskcolor="#d1d1d1"
     inkscape:document-units="mm"
     inkscape:zoom="0.64"
     inkscape:cx="280.46875"
     inkscape:cy="308.59375"
     inkscape:window-width="1920"
     inkscape:window-height="991"
     inkscape:window-x="-9"
     inkscape:window-y="-9"
     inkscape:window-maximized="1"
     inkscape:current-layer="layer1" /><defs
     id="defs1"><inkscape:path-effect
       effect="mirror_symmetry"
       start_point="31,0"
       end_point="31,55.310001"
       center_point="31,27.655001"
       id="path-effect42"
       is_visible="true"
       lpeversion="1.2"
       lpesatellites=""
       mode="vertical"
       discard_orig_path="false"
       fuse_paths="false"
       oposite_fuse="false"
       split_items="false"
       split_open="false"
       link_styles="false" /><inkscape:path-effect
       effect="mirror_symmetry"
       start_point="31,0"
       end_point="31,55.310001"
       center_point="31,27.655001"
       id="path-effect41"
       is_visible="true"
       lpeversion="1.2"
       lpesatellites=""
       mode="vertical"
       discard_orig_path="false"
       fuse_paths="false"
       oposite_fuse="false"
       split_items="false"
       split_open="false"
       link_styles="false" /><inkscape:path-effect
       effect="mirror_symmetry"
       start_point="5.4433634,30.518352"
       end_point="-49.007284,40.230366"
       center_point="-21.78196,35.374359"
       id="path-effect40"
       is_visible="true"
       lpeversion="1.2"
       lpesatellites=""
       mode="vertical"
       discard_orig_path="false"
       fuse_paths="false"
       oposite_fuse="false"
       split_items="false"
       split_open="false"
       link_styles="false" /></defs><g
     inkscape:label="Layer 1"
     inkscape:groupmode="layer"
     id="layer1"><g
       id="g10"
       transform="translate(-102.06828,-64.554831)"><g
         id="g9"><text
           xml:space="preserve"
           style="font-style:normal;font-variant:normal;font-weight:normal;font-stretch:normal;font-size:12.0108px;font-family:'Space Mono';-inkscape-font-specification:'Space Mono';text-align:center;writing-mode:lr-tb;direction:ltr;text-anchor:middle;opacity:0.99;fill:none;stroke:#000000;stroke-width:0.200178;stroke-opacity:1"
           x="128.52791"
           y="76.071198"
           id="text4"><tspan
             sodipodi:role="line"
             id="tspan4"
             style="stroke:none;stroke-width:0.200178"
             x="128.52791"
             y="76.071198">OUTER</tspan><tspan
             sodipodi:role="line"
             style="stroke:none;stroke-width:0.200178"
             x="128.52791"
             y="91.084702"
             id="tspan5" /></text><text
           xml:space="preserve"
           style="font-style:normal;font-variant:normal;font-weight:normal;font-stretch:normal;font-size:12.0108px;font-family:'Space Mono';-inkscape-font-specification:'Space Mono';text-align:center;writing-mode:lr-tb;direction:ltr;text-anchor:middle;opacity:0.99;fill:none;stroke:#000000;stroke-width:0.200178;stroke-opacity:1"
           x="169.43423"
           y="76.112671"
           id="text6"><tspan
             sodipodi:role="line"
             id="tspan6"
             style="fill:#ffffff;fill-opacity:1;stroke:none;stroke-width:0.200178"
             x="169.43423"
             y="76.112671">WILDS</tspan></text><path
           style="opacity:0.99;fill:#000000;fill-opacity:1;stroke:none;stroke-width:0.25;stroke-opacity:1"
           d="m 421.875,432.24336 v -11.94327 l 2.6875,0.14215 c 3.31576,0.17539 5.26242,0.8227 6.20994,2.06496 1.16317,1.525 1.40267,2.83133 1.53783,8.38796 0.26868,11.04667 -0.79447,12.9151 -7.49777,13.17679 l -2.9375,0.11468 z"
           id="path281"
           transform="matrix(0.26458333,0,0,0.26458333,64.232859,-42.469127)" /><path
           style="opacity:0.99;fill:#000000;fill-opacity:1;stroke:none;stroke-width:0.25;stroke-opacity:1"
           d="M 351.875,463.41131 V 458.875 h 3.77472 c 4.10474,0 5.02282,0.22093 5.98123,1.43935 1.20138,1.5273 1.22303,4.45305 0.0433,5.85504 -1.04065,1.23675 -2.02313,1.50151 -6.11178,1.64701 l -3.6875,0.13123 z"
           id="path282"
           transform="matrix(0.26458333,0,0,0.26458333,64.232859,-42.469127)" /><path
           style="opacity:0.99;fill:#000000;fill-opacity:1;stroke:none;stroke-width:0.25;stroke-opacity:1"
           d="m 292.875,425.625 v -5.25 l 4.0625,10e-4 c 4.44432,0.002 5.53344,0.1909 6.68871,1.16299 1.22922,1.03432 1.59915,1.97946 1.59915,4.08562 0,2.10616 -0.36993,3.0513 -1.59915,4.08561 -1.15527,0.9721 -2.24439,1.16147 -6.68871,1.16299 l -4.0625,0.001 z"
           id="path283"
           transform="matrix(0.26458333,0,0,0.26458333,64.232859,-42.469127)" /><path
           style="opacity:0.99;fill:#000000;fill-opacity:1;stroke:none;stroke-width:0.25;stroke-opacity:1"
           d="m 185.10617,444.25283 c -1.38183,-0.44396 -2.71793,-1.68496 -3.41836,-3.17506 -0.93653,-1.99238 -1.11779,-3.76017 -1.00982,-9.8485 0.0913,-5.14709 0.15675,-5.86899 0.64423,-7.10427 1.06153,-2.68989 2.77657,-4.09564 5.36842,-4.40026 3.24032,-0.38084 5.86718,1.45293 6.96471,4.86193 0.43885,1.36311 0.55748,2.4799 0.65725,6.18741 0.17941,6.66635 -0.47299,10.14129 -2.26455,12.06201 -1.42732,1.53023 -4.58364,2.17439 -6.94188,1.41674 z"
           id="path284"
           transform="matrix(0.26458333,0,0,0.26458333,64.232859,-42.469127)" /></g><text
         xml:space="preserve"
         style="font-style:normal;font-variant:normal;font-weight:normal;font-stretch:normal;font-size:10.3264px;font-family:'Space Mono';-inkscape-font-specification:'Space Mono';text-align:center;writing-mode:lr-tb;direction:ltr;text-anchor:middle;opacity:0.99;fill:none;stroke:#000000;stroke-width:0.200178;stroke-opacity:1"
         x="149.16179"
         y="85.200737"
         id="text7"><tspan
           sodipodi:role="line"
           id="tspan7"
           style="font-size:10.3264px;stroke:none;stroke-width:0.200178"
           x="149.16179"
           y="85.200737">VENTURES</tspan></text><path
         style="opacity:0.99;fill:#000000;fill-opacity:1;stroke:none;stroke-width:0.353553;stroke-opacity:1"
         d="m 165.99332,467.63396 c -7.68095,-10.10637 -13.96536,-18.59721 -13.96536,-18.86854 0,-0.27133 6.20486,-8.63343 13.78858,-18.58244 l 13.78858,-18.08911 141.42262,-0.0137 141.42262,-0.0137 13.89611,18.19241 c 7.64286,10.00583 13.9267,18.26271 13.96409,18.34863 0.0374,0.0859 -6.26219,8.44562 -13.99909,18.57713 l -14.06709,18.42093 h -47.83437 c -26.3089,0 -89.82319,0.0908 -141.14285,0.20179 l -93.30848,0.2018 z m 171.65274,15.01899 c 0.97369,-0.45343 2.27943,-1.40423 2.90164,-2.11289 2.01594,-2.29602 2.22231,-3.73586 2.22231,-15.50475 v -10.54243 h -2.10221 -2.1022 l -0.1075,10.7582 c -0.10217,10.22464 -0.14366,10.80657 -0.83646,11.7338 -1.39896,1.87234 -2.50005,2.42842 -4.74796,2.39788 -2.27712,-0.0309 -3.48972,-0.61289 -4.50604,-2.16256 -0.55059,-0.83953 -0.64436,-2.21605 -0.80042,-11.75073 l -0.17678,-10.79981 -2.23256,-0.10585 -2.23256,-0.10586 0.11124,11.06601 0.11124,11.06601 0.92956,1.98236 c 1.60592,3.42477 4.26063,4.87287 8.96993,4.89296 2.23821,0.01 3.19785,-0.15997 4.59877,-0.81234 z m 73.19138,-0.24867 c 2.17735,-1.12191 3.58266,-3.07146 4.06214,-5.63528 0.7459,-3.98837 -0.86119,-7.45784 -4.12285,-8.90065 -0.80659,-0.35679 -3.00025,-0.96429 -4.87481,-1.35 -4.76025,-0.97946 -6.03524,-1.71979 -6.41096,-3.72255 -0.65506,-3.49174 4.37684,-5.72494 8.34179,-3.70218 1.76869,0.90232 2.36236,1.82599 2.66715,4.14971 l 0.24346,1.85615 h 2.07577 2.07577 v -1.70478 c 0,-5.25717 -3.63268,-8.80533 -9.39723,-9.17856 -3.26386,-0.21132 -6.06899,0.58485 -7.90516,2.24372 -1.84426,1.66618 -2.4966,3.17842 -2.4966,5.7876 0,4.78353 2.10505,6.69617 9.01561,8.19154 1.75009,0.3787 3.6249,0.86521 4.16624,1.08113 3.06428,1.22223 3.16172,5.67072 0.15881,7.25003 -1.49452,0.786 -5.3478,0.80843 -6.79992,0.0396 -2.26077,-1.19701 -3.35876,-3.08595 -3.35876,-5.77831 v -1.56798 h -2.32354 -2.32353 l 0.23376,2.03294 c 0.49642,4.31715 1.70368,6.65472 4.2495,8.22812 2.38278,1.47264 3.6806,1.76487 7.4233,1.67149 3.00409,-0.075 3.81554,-0.22679 5.30006,-0.99171 z M 245.04837,468.81179 c 2.20537,-7.77817 4.01432,-14.18918 4.01988,-14.24667 0.006,-0.0575 -1.06124,-0.0575 -2.37068,0 l -2.38079,0.10454 -3.36445,12.28214 c -1.85045,6.75518 -3.444,12.28379 -3.54123,12.28581 -0.0972,0.002 -1.69982,-5.52495 -3.56133,-12.28214 l -3.38455,-12.28581 -2.38986,-0.10521 c -2.16011,-0.0951 -2.37168,-0.0441 -2.20084,0.53033 0.10395,0.34955 1.87094,6.60175 3.92663,13.89379 2.05569,7.29204 3.81055,13.46272 3.89969,13.71263 0.1209,0.33894 1.07362,0.42877 3.74992,0.35356 l 3.58784,-0.10083 z m 25.2432,12.1976 v -2.12132 h -6.71752 -6.71751 v -4.06587 -4.06586 h 6.54074 6.54073 v -1.94455 -1.94454 h -6.54073 -6.54074 v -4.06586 -4.06587 h 6.54074 6.54073 v -2.12132 -2.12132 h -8.66206 -8.66205 v 14.31891 14.31892 h 8.83883 8.83884 z m 9.56461,-9.98789 0.0187,-12.1092 2.81674,9.19239 c 1.5492,5.05581 3.21645,10.50495 3.705,12.1092 l 0.88827,2.91682 h 3.70094 3.70095 v -14.31892 -14.31891 h -2.11662 -2.11662 l -0.0931,11.92997 -0.0931,11.92996 -2.41113,-7.95249 c -1.32612,-4.37387 -2.96572,-9.74235 -3.64357,-11.92996 l -1.23244,-3.97748 h -3.69266 -3.69266 v 14.31891 14.31892 h 2.12132 2.12132 z m 31.44758,-0.0884 v -12.19759 h 3.88909 3.88908 v -2.12132 -2.12132 h -10.07627 -10.07627 v 2.12132 2.12132 h 3.88909 3.88909 v 12.19759 12.1976 h 2.29809 2.2981 z m 40.65864,6.54074 V 471.817 h 4.34871 c 2.91092,0 4.48897,0.14027 4.77297,0.42426 0.29176,0.29177 0.42426,2.05847 0.42426,5.65686 v 5.23259 h 2.12132 2.12132 v -6.12556 c 0,-5.99924 -0.0174,-6.1419 -0.84382,-6.91828 l -0.84382,-0.79273 0.86328,-0.86327 c 1.28815,-1.28816 1.88593,-3.04901 1.87726,-5.52974 -0.009,-2.68138 -0.83081,-4.67823 -2.50519,-6.08997 -2.1559,-1.81772 -3.1763,-2.04321 -10.12658,-2.23785 l -6.45235,-0.1807 v 14.36905 14.36905 h 2.12132 2.12132 z m 37.83021,3.53554 v -2.12132 h -6.71751 -6.71752 v -4.06587 -4.06586 h 6.54074 6.54074 v -1.94455 -1.94454 h -6.54074 -6.54074 v -4.06586 -4.06587 h 6.54074 6.54074 v -2.12132 -2.12132 h -8.83884 -8.83883 v 14.31891 14.31892 h 9.01561 9.01561 z M 192.52778,448.24233 c 3.51785,-1.57083 5.60438,-4.53351 6.32628,-8.98269 0.20236,-1.24721 0.36637,-4.57459 0.36446,-7.39417 -0.005,-8.02995 -1.04715,-11.50922 -4.27255,-14.27004 -2.01003,-1.72051 -4.07762,-2.34697 -7.74596,-2.34697 -2.7087,0 -3.31264,0.12498 -5.22732,1.08176 -2.35783,1.17822 -3.85926,2.7983 -5.11505,5.51925 -0.74713,1.61882 -0.78805,2.15733 -0.78805,10.36955 0,9.39575 0.0576,9.7347 2.17827,12.8055 1.07535,1.55718 3.6607,3.30038 5.61609,3.78671 2.2384,0.55672 6.81621,0.25612 8.66383,-0.5689 z m 26.77233,0.40786 c 3.81029,-1.13154 6.4295,-4.3107 7.1289,-8.653 0.20358,-1.26395 0.37135,-7.26994 0.37282,-13.34664 l 0.003,-11.04854 h -2.47487 -2.47488 v 11.11953 c 0,11.91926 -0.22201,14.05911 -1.63255,15.73545 -1.22611,1.45714 -3.59926,2.28523 -5.80155,2.0244 -2.21796,-0.26268 -3.70678,-1.12325 -4.69952,-2.71643 -0.74864,-1.20142 -0.77414,-1.60015 -0.87632,-13.70019 l -0.10524,-12.46276 h -2.45802 -2.45802 l 0.0115,12.28598 c 0.0125,13.29465 0.13216,14.27712 2.08637,17.1291 2.39777,3.49932 8.36891,5.12083 13.37867,3.6331 z m 239.80606,-0.14169 c 2.61867,-0.99501 4.04611,-2.24044 5.14712,-4.49082 0.80859,-1.65271 0.97547,-2.45852 0.97076,-4.68752 -0.007,-3.13694 -0.74628,-4.92785 -2.76855,-6.70343 -1.67067,-1.46687 -3.09593,-2.03169 -7.20725,-2.85618 -6.66938,-1.3375 -8.17999,-2.35767 -8.17999,-5.52428 0,-2.32696 2.92715,-4.39375 6.23112,-4.39965 1.51462,-0.003 4.00224,0.92026 5.0297,1.86614 1.13171,1.04184 1.82066,2.73881 1.82066,4.4845 v 1.42556 h 2.47487 2.47487 v -1.70359 c 0,-4.81872 -2.79579,-8.58196 -7.41895,-9.9862 -4.50734,-1.36907 -9.65167,-0.57193 -12.66336,1.96224 -3.2005,2.69304 -3.8288,8.74589 -1.25813,12.12053 1.29788,1.70381 4.43334,3.12137 8.83696,3.99525 2.11278,0.41928 4.43572,1.06468 5.16208,1.43424 2.47684,1.26015 3.24303,3.50131 2.08894,6.1103 -0.94778,2.14263 -2.72956,3.01892 -6.16099,3.03003 -4.06654,0.0132 -6.57036,-1.56271 -7.50996,-4.72671 -0.28711,-0.9668 -0.52202,-2.36534 -0.52202,-3.10787 V 435.401 h -2.47488 -2.47487 v 1.39681 c 0,4.91932 2.30849,9.08737 6.10819,11.02849 2.28193,1.16575 2.97553,1.30011 6.8811,1.33289 2.77387,0.0233 4.03915,-0.12882 5.41258,-0.65069 z m -119.76581,-0.46797 c 0.1004,-0.43752 0.70848,-6.32202 1.35129,-13.07666 0.64281,-6.75464 1.27049,-12.16401 1.39484,-12.02081 0.12434,0.14319 0.73193,5.66971 1.3502,12.28116 0.61827,6.61145 1.20152,12.37879 1.29612,12.81631 0.16559,0.76589 0.31567,0.7955 4.03268,0.7955 h 3.86069 l 0.20962,-1.5026 c 0.35783,-2.56495 3.01554,-29.37676 3.01562,-30.42247 7e-5,-0.98854 -0.001,-0.98907 -2.20171,-0.88388 l -2.20177,0.10526 -1.30869,13.00625 c -0.71978,7.15344 -1.36224,13.16693 -1.4277,13.36331 -0.0655,0.19638 -0.64863,-5.41779 -1.29594,-12.47593 -0.64731,-7.05813 -1.25377,-13.11649 -1.34769,-13.46301 -0.15297,-0.56437 -0.58213,-0.61965 -4.1171,-0.53033 l -3.94632,0.0997 -1.26433,13.25825 c -0.88194,9.24827 -1.33642,12.83052 -1.50267,11.84404 -0.13109,-0.77782 -0.72559,-6.42583 -1.32112,-12.55115 -0.59553,-6.12531 -1.15706,-11.4949 -1.24783,-11.93242 -0.15006,-0.72323 -0.36724,-0.7955 -2.39062,-0.7955 h -2.22556 l 1.67933,16.35185 c 0.92363,8.99351 1.68952,16.39162 1.70197,16.44023 0.0125,0.0486 1.75548,0.0884 3.87339,0.0884 3.70359,0 3.85774,-0.0304 4.0333,-0.7955 z m 41.25986,-1.5026 v -2.2981 h -4.24264 -4.24264 V 432.3958 420.55176 h 4.24264 4.24264 v -2.2981 -2.2981 h -10.78337 -10.78338 v 2.2981 2.2981 h 4.24264 4.24264 v 11.84404 11.84403 h -4.24264 -4.24264 v 2.2981 2.2981 h 10.78338 10.78337 z m 27.93072,0 v -2.2981 h -8.3085 -8.30851 V 430.0977 415.95556 h -2.47487 -2.47488 v 16.44024 16.44023 h 10.78338 10.78338 z m 19.79899,1.92261 c 4.84457,-0.78031 7.62984,-3.53414 8.49797,-8.40209 0.62816,-3.52231 0.28094,-15.63332 -0.50992,-17.78609 -0.8478,-2.30777 -2.68759,-4.30415 -4.87908,-5.29437 -1.75773,-0.79423 -2.33912,-0.85253 -9.56132,-0.95876 l -7.68978,-0.11311 v 2.32282 2.32282 h 1.41421 1.41421 v 11.66726 11.66726 h -1.41421 -1.41421 v 2.47487 2.47488 l 5.92201,-0.003 c 3.25712,-0.001 6.95617,-0.16924 8.22012,-0.37282 z m -182.7871,-14.1202 V 420.1982 h 4.59619 4.5962 v -2.29809 -2.2981 h -11.66726 -11.66727 v 2.2981 2.29809 h 4.5962 4.59619 v 14.14214 14.14213 h 2.47488 2.47487 z m 35.70889,11.84404 v -2.2981 h -7.77817 -7.77818 v -4.77297 -4.77297 h 7.42462 7.42462 v -2.2981 -2.2981 h -7.42462 -7.42462 v -4.77297 -4.77297 h 7.6014 7.6014 v -2.29809 -2.2981 H 270.8219 260.74562 v 16.44023 16.44023 h 10.25305 10.25305 z m 11.66726,-4.24264 V 435.401 h 4.94975 c 6.70234,0 6.36396,-0.38538 6.36396,7.24784 v 5.83363 h 2.50191 2.5019 l -0.11542,-6.92393 -0.11542,-6.92393 -1.08522,-0.96901 -1.08522,-0.969 1.30777,-1.47368 c 2.03373,-2.29172 2.61431,-5.63733 1.57993,-9.10439 -0.7065,-2.3681 -2.27828,-4.15484 -4.70195,-5.345 -1.99651,-0.9804 -2.13403,-0.99653 -9.53872,-1.1183 l -7.51301,-0.12355 v 16.4754 16.47539 h 2.47487 2.47487 z"
         id="path279"
         transform="matrix(0.26458333,0,0,0.26458333,64.232859,-42.469127)" /></g><path
       style="opacity:0.99;fill:#000000;fill-opacity:1;stroke:#000000;stroke-width:0.264583;stroke-opacity:1"
       d="M 2.1635565,11.765652 9.7976085,1.7762521"
       id="path10" /><path
       style="opacity:0.99;fill:none;stroke:#000000;stroke-width:0.264583;stroke-opacity:1"
       d="m 2.1806795,11.659242 7.634052,9.9894"
       id="path10-7" /><path
       style="opacity:0.99;fill:none;stroke:#000000;stroke-width:0.264583;stroke-opacity:1"
       d="M 92.131053,11.771822 84.497003,1.7824221"
       id="path10-2" /><path
       style="opacity:0.99;fill:none;stroke:#000000;stroke-width:0.264583;stroke-opacity:1"
       d="m 92.072843,11.659402 -7.63405,9.9894"
       id="path10-7-3" /><path
       style="opacity:0.99;fill:none;stroke:#000000;stroke-width:0.264783;stroke-opacity:1"
       d="m 9.5827865,1.9225221 75.0528065,-0.0493"
       id="path11" /><path
       style="opacity:0.99;fill:none;stroke:#000000;stroke-width:0.264783;stroke-opacity:1"
       d="m 9.6442915,21.629322 75.0528015,-0.0493"
       id="path11-6" /><path
       sodipodi:type="star"
       style="opacity:0.99;fill:#fbff53;fill-opacity:1;stroke:#000000;stroke-width:2.63024;stroke-linecap:round;stroke-linejoin:round;stroke-dasharray:none;stroke-opacity:1;paint-order:normal"
       id="path285"
       inkscape:flatsided="true"
       sodipodi:sides="3"
       sodipodi:cx="133.20712"
       sodipodi:cy="47.520523"
       sodipodi:r1="36.108112"
       sodipodi:r2="18.054056"
       sodipodi:arg1="0.52359878"
       sodipodi:arg2="1.5707963"
       inkscape:rounded="0"
       inkscape:randomized="2.7755576e-17"
       d="m 164.47767,65.574579 -62.54109,0 31.27054,-54.162168 z"
       inkscape:transform-center-y="-6.8640227"
       transform="matrix(0.76038563,0,0,0.76038563,5.0481236,-6.0594195)" /><path
       style="opacity:0.99;fill:#000000;fill-opacity:1;stroke:#000000;stroke-width:1;stroke-linecap:round;stroke-linejoin:round;stroke-dasharray:none;stroke-opacity:1;paint-order:normal"
       d="m 106.41624,15.67499 h 3.67162 l -4.4392,7.688924 h 6.14638 l -8.33649,14.439235 h 1.96923 l -4.59814,2.167289 -1.610953,-2.173187 h 1.815723 l 6.23818,-11.330999 h -6.9835 z"
       id="path295"
       sodipodi:nodetypes="cccccccccccc" /><g
       id="g302"
       transform="matrix(-0.8333679,0,0,-0.8333679,162.71596,45.881955)"><g
         inkscape:label="Layer 1"
         id="layer1-4"
         style="display:inline"><path
           id="rect1"
           style="fill:#292c54;fill-opacity:1;stroke-width:0.264583"
           sodipodi:type="inkscape:offset"
           inkscape:radius="0"
           inkscape:original="M 31 1.2734375 A 3 3 0 0 0 28.404297 2.7695312 L 1.4042969 49.535156 A 3 3 0 0 0 4 54.037109 L 58 54.037109 A 3 3 0 0 0 60.595703 49.535156 L 33.595703 2.7695312 A 3 3 0 0 0 31 1.2734375 z "
           d="M 31,1.2734375 A 3,3 0 0 0 28.404297,2.7695312 L 1.4042969,49.535156 A 3,3 0 0 0 4,54.037109 h 54 a 3,3 0 0 0 2.595703,-4.501953 l -27,-46.7656248 A 3,3 0 0 0 31,1.2734375 Z" /><path
           id="path3"
           style="fill:#fcf0db;fill-opacity:1;stroke-width:0.264583"
           sodipodi:type="inkscape:offset"
           inkscape:radius="-2.0577722"
           inkscape:original="M 31 1.2734375 A 3 3 0 0 0 28.404297 2.7695312 L 1.4042969 49.535156 A 3 3 0 0 0 4 54.037109 L 58 54.037109 A 3 3 0 0 0 60.595703 49.535156 L 33.595703 2.7695312 A 3 3 0 0 0 31 1.2734375 z "
           d="m 31,3.3320313 c -0.328415,1.24e-5 -0.649818,0.1845814 -0.814453,0.46875 L 3.1855469,50.564453 C 2.856166,51.133968 3.342095,51.978243 4,51.978516 h 54 c 0.657905,-2.73e-4 1.143834,-0.844548 0.814453,-1.414063 l -27,-46.7636717 C 31.649818,3.5166127 31.328415,3.3320437 31,3.3320313 Z" /><path
           id="path4"
           style="fill:#020408;fill-opacity:1;stroke-width:0.264583"
           sodipodi:type="inkscape:offset"
           inkscape:radius="-2.6381469"
           inkscape:original="M 31 1.2734375 A 3 3 0 0 0 28.404297 2.7695312 L 1.4042969 49.535156 A 3 3 0 0 0 4 54.037109 L 58 54.037109 A 3 3 0 0 0 60.595703 49.535156 L 33.595703 2.7695312 A 3 3 0 0 0 31 1.2734375 z "
           d="m 31,3.9121094 c -0.126125,4.8e-6 -0.249273,0.070555 -0.3125,0.1796875 L 3.6894531,50.853516 a 2.6384107,2.6384107 0 0 1 -0.00195,0.002 c -0.1264954,0.218716 0.061791,0.542864 0.3144531,0.542968 H 57.998047 c 0.252662,-1.04e-4 0.440948,-0.324252 0.314453,-0.542968 a 2.6384107,2.6384107 0 0 1 -0.002,-0.002 L 31.3125,4.0917969 C 31.249273,3.9826648 31.126125,3.9121142 31,3.9121094 Z" /></g><g
         id="layer3"
         inkscape:label="Internal"
         style="display:inline"><path
           style="display:inline;fill:#865a0e;fill-opacity:1;stroke-width:0.264583"
           d="m 39.233162,42.110091 c 0.8094,-0.595399 1.508243,-3.000364 1.508243,-3.000364 l 0.857882,-0.959205 0.413175,0.101558 c 0,0 -1.363999,2.917452 -1.57155,4.291384 z"
           id="path32"
           sodipodi:nodetypes="cccccc"
           inkscape:label="trunk" /><path
           style="display:inline;fill:#865a0e;fill-opacity:1;stroke-width:0.264583"
           d="m 25.02854,40.810621 2.0431,-0.440324 C 25.6247,38.964698 25.12713,34.605602 25.12713,34.605602 l -1.076348,-0.225146 c 0,0 1.201,4.230817 0.977758,6.430165 z"
           id="path33"
           sodipodi:nodetypes="ccccc"
           inkscape:label="trunk" /><path
           style="display:inline;fill:#865a0e;fill-opacity:1;stroke-width:0.264583"
           d="m 18.513165,45.258233 0.878154,-0.891752 c -0.206706,-0.157096 -1.736245,-2.00861 -1.736245,-2.00861 l -0.368846,0.583477 c 0,0 1.152523,2.01096 1.226937,2.316885 z"
           id="path34"
           sodipodi:nodetypes="ccccc"
           inkscape:label="trunk" /><path
           id="path8"
           style="fill:#fcf0db;fill-opacity:1;stroke-width:0.264583"
           d="m 27.391417,39.602234 c -0.613883,0.0058 -3.153173,0.456464 -4.617289,1.37511 0.02008,0.281698 -0.07074,0.527057 -0.171566,0.70745 a 20.200001,20.200001 0 0 0 -6.053377,4.333069 c -0.405733,-0.02008 -1.008642,-0.0097 -1.853117,0.102319 -0.926049,0.985439 -2.631339,3.537021 -3.022555,5.376416 h 37.592021 a 20.200001,20.200001 0 0 0 -1.732711,-3.059244 c 0.06328,-0.407069 0.127862,-0.837458 0.186552,-1.275375 -0.813556,-2.132108 -4.613673,-5.159377 -5.357812,-5.638932 -0.924168,0.0959 -1.977389,0.178171 -2.777608,0.237711 a 20.200001,20.200001 0 0 0 -8.572087,-1.910994 20.200001,20.200001 0 0 0 -3.150712,0.265617 c -0.148535,-0.206564 -0.333934,-0.4377 -0.469739,-0.513147 z"
           inkscape:label="moon" /><ellipse
           style="display:inline;fill:#d6bba0;fill-opacity:1;stroke-width:0.267376"
           id="path30"
           cx="-12.798011"
           cy="51.195473"
           rx="3.8810341"
           ry="2.0999999"
           transform="matrix(0.82380317,-0.56687595,0.6048847,0.79631306,0,0)"
           inkscape:label="crater" /><path
           id="path31"
           style="display:inline;fill:#d6bba0;fill-opacity:1;stroke-width:0.264583"
           inkscape:label="crater"
           d="m 57.729199,16.531332 a 5.3247395,2.5999999 0 0 0 -1.1,1.582534 5.3247395,2.5999999 0 0 0 5.324719,2.600177 5.3247395,2.5999999 0 0 0 0.01462,-3.89e-4 l 5.074939,-3.362848 a 5.3247395,2.5999999 0 0 0 -5.089649,-1.836601 5.3247395,2.5999999 0 0 0 -4.224629,1.017127 z"
           transform="rotate(33.529977)" /><path
           style="display:inline;fill:#7aa031;fill-opacity:1;stroke-width:0.264583"
           d="m 42.439162,38.140528 c 0.03476,0.195908 0.114304,0.276208 0.243952,0.38876 0.136615,0.118605 0.336461,0.102255 0.498368,0.187912 0.06885,0.139129 0.143458,0.275943 0.237564,0.389019 0.164907,0.148317 0.346875,0.225236 0.581913,0.214742 0.355498,-0.01993 0.465866,-0.439915 0.473171,-0.656773 -0.262599,-0.0024 -0.675612,0.02728 -0.781626,-0.04689 -0.134287,-0.09395 -0.418573,-0.179395 -0.539535,-0.389349 0.193685,0.07373 0.616899,0.09364 0.895092,0.03766 -0.201895,-0.09671 -0.699509,-0.872197 -0.266725,-0.575142 0.118622,0.08141 0.291079,0.213331 0.499342,0.220046 0.219738,0.0071 0.432309,-0.09217 0.482468,-0.184657 -0.443124,-0.195715 -0.516598,-0.323204 -0.139663,-0.416491 -0.21907,-0.163844 -0.421953,-0.20972 -0.69726,-0.467417 -0.199957,-0.187167 -0.306565,-0.275392 -0.47295,-0.481999 -0.244198,-0.368841 -0.291566,-0.747787 -0.200426,-1.188055 0.07208,0.298261 0.106717,0.533185 0.340733,0.858547 0.113413,0.157679 0.328546,0.346101 0.490735,0.406833 0.286373,0.107233 0.721931,0.213321 0.856174,0.0057 0.114548,-0.177119 0.230673,-0.352809 0.232835,-0.753603 -0.281218,0.05908 -0.612718,0.08283 -0.916141,-0.167238 -0.09737,-0.08024 -0.277072,-0.316075 -0.325185,-0.437025 0.29083,0.118906 0.431176,0.170546 0.552608,0.137399 0.247145,-0.06901 -0.0044,-0.146561 -0.01446,-0.283264 0.06376,-0.01069 0.415874,-0.192005 0.442012,-0.363186 -0.200573,-0.003 -0.404941,-0.11743 -0.558688,-0.214581 -0.160406,-0.101365 -0.353559,-0.314646 -0.480943,-0.491436 -0.07723,-0.107186 -0.278398,-0.570536 -0.03047,-0.369704 0.220252,0.177607 0.407332,0.27593 0.616204,0.271765 0.155608,-0.0031 0.495831,-0.126232 0.539482,-0.347393 -0.356374,-0.01248 -0.72852,-0.191355 -0.899013,-0.503173 -0.09161,-0.179097 -0.200159,-0.846062 0.157134,-0.512588 0.117787,0.109935 0.273263,0.334482 0.538695,0.218037 -0.126047,-0.281707 -0.197947,-0.262567 -0.382509,-0.758758 -0.117696,-0.316425 -0.05572,-0.862433 -0.07517,-1.228732 -0.167066,0.196958 -0.259057,0.323619 -0.43641,0.47119 -0.110234,0.09172 -0.265708,0.180868 -0.544251,0.302192 0.03078,0.157294 0.224957,0.282242 0.343185,0.333126 -0.175547,0.140733 -0.373224,0.1804 -0.526976,0.21129 -0.143085,0.02875 -0.389757,0.0175 -0.581578,-0.0038 -0.01825,0.177102 0.0209,0.315454 0.118777,0.418339 0.127531,0.134074 0.393753,0.177701 0.591216,0.1098 0.04256,0.253041 -0.817669,0.250046 -1.021949,0.223565 -0.225623,-0.02926 -0.389662,-0.151572 -0.621417,-0.247893 -0.0859,0.357457 0.306566,0.502988 0.477498,0.561702 0.146178,0.05021 0.561808,0.182593 0.72283,0.110585 0.170727,-0.07635 0.341135,-0.04989 0.347306,0.04918 0.0097,0.154375 -0.342268,0.461403 -0.673446,0.466593 -0.359202,0.0056 -1.060202,-0.05597 -1.632854,-0.318546 -0.11112,0.299871 0.01387,0.499418 0.173466,0.6223 0.161459,0.124347 0.508964,0.161895 0.849483,0.175987 -0.05342,0.143437 -0.255238,0.228743 -0.517959,0.250955 -0.07717,0.0066 -0.638488,0.111093 -1.092339,-0.05077 -0.03561,0.118237 0.168491,0.390613 0.270695,0.442481 0.380744,0.193229 0.585457,0.02284 0.678028,-0.04733 0.09584,-0.07265 0.277862,0.102967 0.471243,0.117788 0.199025,0.01525 0.597593,-0.159033 0.762812,-0.222852 0.02741,0.201397 -0.04266,0.365826 -0.182051,0.473328 -0.282218,0.217661 -0.773743,0.221586 -1.174166,0.357337 -0.220259,0.07466 -0.431635,0.0039 -0.90073,-0.05848 -0.184711,-0.02461 -0.495386,-0.177809 -0.818991,-0.239705 0.10309,0.521085 0.235067,0.7505 0.551045,0.845635 0.343217,0.10334 0.401049,-0.05625 0.742827,-0.05353 0.156029,0.0013 0.213598,0.105396 0.320647,0.133593 0.157889,0.04158 0.411071,0.06409 0.57642,-0.03615 0.222855,-0.135127 0.410947,-0.27478 0.603964,-0.295221 0.114374,0.374348 -0.317732,0.509568 -0.474693,0.592092 -0.382562,0.201136 -0.632935,0.143253 -1.083149,0.121647 -0.440617,-0.02113 -0.817821,-0.0522 -1.253838,-0.129644 0.01203,0.20495 0.06206,0.346855 0.207861,0.476681 0.291526,0.259578 0.495567,-0.09331 0.691323,0.085 0.150745,0.137321 0.337182,0.276109 0.558274,0.258089 0.231345,-0.01887 0.473838,-0.263785 0.562068,-0.180484 0.07973,0.07528 0.127344,0.448699 -0.5788,0.659172 -0.307221,0.09157 -0.574266,0.09964 -1.021351,-0.05182 -0.0035,0.245082 0.14681,0.587982 0.498028,0.682256 -0.0789,0.11108 -0.45572,0.12022 -0.752405,0.05574 -0.274413,-0.05964 -0.486478,-0.240094 -0.739202,-0.405134 -0.189737,0.308988 -0.07833,0.717574 0.188911,0.871947 0.356339,0.205843 0.424762,-0.355586 0.684515,-0.02245 0.183697,0.235616 0.546129,0.116625 0.768906,-0.04948 0.216336,-0.161297 0.403003,-0.27305 0.675984,-0.338832 0.0044,0.236411 -0.441787,0.536048 -0.690529,0.653006 -0.379092,0.178248 -0.622124,0.195841 -1.255789,0.264502 0.04058,0.533481 0.442743,0.631463 0.771571,0.581474 0.137526,-0.02091 0.309348,-0.198048 0.556294,-0.272338 0.142552,-0.04289 0.466596,-0.298884 0.634937,-0.503323 0.109887,-0.133445 0.290288,-0.356466 0.498187,-0.699856 -0.147832,0.491614 -0.298333,0.874207 -0.316813,1.241249 -0.03836,0.312003 0.0082,0.530423 0.208075,0.787856 0.143452,0.184804 0.404076,0.285248 0.594147,0.17557 -0.124693,-0.135903 -0.290784,-0.493141 -0.324424,-0.684214 -0.04673,-0.123547 -0.05109,-0.402391 -0.01807,-0.520983 0.159018,0.04886 0.27695,0.138689 0.346795,0.208995 0.07113,0.07161 -0.05071,0.466956 0.385296,0.493792 0.412174,0.02537 0.589793,-0.106798 0.671854,-0.467411 -0.312642,-0.158279 -0.69073,-0.408836 -0.835716,-0.753891 -0.103834,-0.27192 -0.139247,-0.678545 -0.119742,-0.973594 0.03091,-0.151893 0.154902,0.05868 0.187538,0.242655 z"
           id="path24"
           sodipodi:nodetypes="ssccccsccssccsccssscsccccsscsccscscsccscscscsssscscscssscssscsssscsscsssssccscssscscsssccscccsscccss"
           inkscape:label="leaves" /><path
           style="display:inline;fill:#7aa031;fill-opacity:1;stroke-width:0.264583"
           d="m 26.819464,35.450253 c -0.530434,0.0039 -0.84633,0.217741 -1.17159,-0.01389 -0.115883,-0.08253 -0.188647,-0.143877 -0.224818,-0.301748 0.107494,-0.0183 0.227185,0.04083 0.333537,0.135137 0.3386,0.300219 0.663951,-0.231543 0.984476,-0.07539 0.362942,0.176815 0.842126,-0.153183 0.921819,-0.534762 -0.503321,0.05095 -1.230095,0.122074 -1.636845,-0.03289 -0.246278,-0.09383 -0.686255,-0.20506 -0.761159,-0.497686 0.118308,-0.06455 0.421415,0.04446 0.688443,-0.01353 0.390385,-0.08475 0.621959,0.564107 1.08068,-0.08447 0.295767,-0.41818 0.522081,0.228549 0.976292,-0.224758 0.09093,-0.09076 0.63003,-0.470758 0.193823,-0.921433 -0.506944,0.348391 -1.314919,0.775261 -1.953631,0.705353 -0.340168,-0.03723 -0.752754,0.04258 -0.833245,-0.101951 0.185664,-0.07641 0.825351,-0.142539 0.706356,-0.607695 -0.205632,0.06753 -0.513314,0.123163 -0.825588,-0.04646 -0.14179,-0.07702 -0.536855,-0.308547 -0.680238,-0.718001 0.37678,0.171803 0.745573,0.341962 0.921912,0.355051 0.335582,0.02491 0.105564,-0.08977 0.613051,0.11631 0.432969,0.175822 0.905202,0.02341 0.860856,-0.561961 -0.500015,0.08755 -1.125052,0.111467 -1.623185,-0.03553 -0.126266,-0.03726 -0.31517,-0.08775 -0.411716,-0.181227 0.11362,-0.002 0.493048,-0.02904 0.592384,-0.22916 -0.489459,-0.113045 -1.013068,-0.35002 -1.046894,-0.608616 1.212517,0.550988 1.024682,0.01747 1.218913,0.015 0.07704,-10e-4 0.224707,0.161032 0.374524,0.14434 0.142575,-0.01589 0.447764,-0.03607 0.425183,-0.709577 -0.964187,0.415372 -1.962947,0.380479 -2.062568,-0.269317 0.374465,-0.0123 1.086057,-0.09511 1.18846,-0.472389 -0.748793,0.02075 -1.748389,-0.0641 -1.95617,-1.084618 0.437149,0.140962 1.10412,0.176198 1.17664,-0.494296 -0.402478,-0.0014 -1.31182,0.115666 -1.677232,-0.46255 0.427508,0.114921 0.721578,0.262819 0.79682,-0.149678 -0.453403,-0.0029 -0.993273,-0.147979 -0.637029,-0.642733 -0.764386,-0.415747 -0.738931,-0.765501 -1.002846,-1.09069 -0.112244,0.851406 -0.169952,1.677302 -0.883441,2.327258 0.779136,0.153249 0.858444,0.06541 1.154728,-0.173338 0.0035,0.556421 -0.230314,1.099959 -0.890459,1.519389 0.423101,0.01699 0.578112,-0.08408 0.768807,-0.222648 0.05188,0.439641 -0.100574,1.089519 -1.479053,1.166735 0.0083,0.740338 0.941098,0.647584 1.07015,0.233197 0.102044,-0.327685 0.299087,0.124298 0.723948,-0.342975 -0.126137,0.90341 -0.871628,0.705371 -1.515587,1.437643 0.510313,0.163603 0.992823,-0.136271 1.488899,-0.651598 0.02786,0.654549 -0.539486,0.789671 -0.804248,1.115115 0.783982,0.68312 1.071898,-0.948391 1.387171,-1.060382 0.09533,1.404976 -0.921377,2.250149 -2.790443,2.789367 0.915143,0.594571 1.074389,-0.03097 1.145448,-0.0506 0.31606,-0.08734 0.831728,0.162908 1.039734,-0.642764 0.115618,-0.447826 0.356509,0.316022 0.686845,-0.808063 0.206242,0.554942 0.153845,2.526601 -2.526835,2.280693 0.378111,1.063821 1.420411,1.105866 1.546064,0.878087 0.12845,-0.232848 0.122689,-0.208259 0.399481,-0.195237 0.308211,0.01449 0.709276,-0.702056 1.020662,-1.479387 0.13721,1.813502 -0.466845,1.910121 -1.364098,2.751531 1.360802,0.259091 0.501181,-0.468136 1.514999,-0.671205 -0.130767,0.529168 -0.49803,1.044991 -0.913912,1.432985 1.062973,0.234644 1.046921,-0.128489 1.318849,-0.50188 0.08702,-0.119497 0.177392,0.07509 0.171677,-0.641085 -0.0083,-1.042905 -0.339309,-0.265437 -0.21334,-1.569079 0.354488,0.406775 0.467354,0.922649 0.578249,1.167397 0.07568,0.167004 0.192131,0.276102 0.597081,0.464307 0.204423,0.09502 1.571002,0.370225 1.219209,-0.857636 z"
           id="path25"
           sodipodi:nodetypes="cscsscscssscsccscsscscccssccccccccccccccsccccccssccssccccsscssc"
           inkscape:label="leaves" /><path
           style="display:inline;fill:#7aa031;fill-opacity:1;stroke-width:0.264583"
           d="m 16.087038,44.71099 c 0.828816,0.130195 0.917497,-0.278898 0.923831,-0.587964 0.003,-0.147172 -0.127319,-0.324905 0.212561,-0.525306 0.0574,0.225852 -0.03797,0.393427 -0.101334,0.592254 0.294613,0.334595 0.731457,-0.152936 0.738122,-0.252329 0.0294,-0.438503 -0.140482,-0.88305 -0.244716,-1.332459 l -3e-6,-2.8e-5 c 0.43255,0.07966 0.9339,1.34228 1.680372,0.394104 -0.450742,0.08829 -0.817141,-0.05537 -1.075816,-0.327786 0.232005,-0.162157 0.353903,-0.178607 0.392981,-0.157467 0.357837,0.19358 1.073328,0.06096 0.709017,-0.785514 -0.348879,0.268817 -0.896051,0.315389 -1.5355,0.03034 1.07889,0.01252 1.860203,-0.610553 1.380319,-1.024226 -0.114938,0.423538 -0.601495,0.649854 -1.321113,0.611294 -0.403838,-0.02164 -0.440812,-0.162065 -0.45157,-0.324134 0.486753,0.07235 1.018126,0.243723 1.087302,-0.234771 -0.372169,0.14539 -0.509209,0.166945 -0.771853,0.0081 0.237114,-0.237572 0.313131,-0.343055 0.512937,-0.446153 0.167491,-0.08642 0.845663,0.234487 0.610649,-0.966256 -0.369551,0.360503 -0.982509,1.046937 -1.722038,1.059946 -0.425344,0.0075 -0.87227,-0.02108 -1.082534,-0.378244 0.331973,-0.0095 0.637657,0.225956 0.830727,0.03287 0.23058,-0.230596 0.467557,0.05907 0.551731,-0.626312 -0.425609,0.213454 -0.964155,0.504484 -1.383111,0.127461 0.395391,-0.08921 0.894858,-0.05339 1.161431,-0.631854 -0.532021,0.15583 -1.026638,0.424294 -1.683484,0.293474 0.56863,-0.235711 0.185143,-0.303367 0.851552,-0.327002 0.225759,-0.008 0.55747,-0.449647 0.142201,-0.772771 -0.359846,0.30872 -0.761524,0.914065 -1.512729,0.371444 0.255767,-0.07037 0.394437,-0.123721 0.539308,-0.389237 -0.571884,0.201703 -0.996171,0.176092 -1.277443,-0.205502 0.158237,-0.167508 0.177116,-0.01535 0.343707,-0.210642 0.101642,-0.119153 0.162492,-0.245545 0.183088,-0.444368 -0.403852,0.220162 -0.890788,0.04733 -1.660402,-0.408361 0.188466,0.494982 0.577837,1.146705 0.0144,1.89208 0.39719,0.09907 0.56111,-0.274887 0.727075,-0.319704 0.05296,0.480072 0.01308,0.697616 -0.397482,0.971589 0.451248,0.12577 0.554189,-0.217756 0.633205,-0.185563 -0.01303,0.603617 -0.341059,0.78075 -0.458568,1.117885 1.105211,-0.02115 0.590209,-1.119651 0.794105,-1.286471 0.307114,0.20929 0.207287,0.840877 0.06577,1.052923 0.141353,-0.01014 0.287431,-0.004 0.350132,0.02628 -0.196514,0.492531 -0.05898,0.912929 -0.98752,1.118078 0.764962,0.341212 1.183118,0.115623 1.298427,-0.936703 0.816428,0.668504 -0.151483,1.930789 -0.835203,2.501567 0.617376,0.03835 0.774956,-0.112406 0.766853,-0.439735 -0.01127,-0.455088 0.5838,0.420681 0.595273,-1.087889 0.398937,0.261703 0.761675,1.595612 -0.07992,1.945842 0.448328,0.230448 -0.343681,0.532221 -0.676723,0.655184 0.715589,0.652549 1.155611,-0.243254 1.145348,-0.370225 -0.02324,-0.287523 0.552952,0.0094 0.372779,-1.342239 0.338688,0.553542 0.200584,1.072378 0.153339,1.384988 -0.04938,0.326768 0.03657,0.576372 -0.50948,1.139512"
           id="path26"
           sodipodi:nodetypes="csccsccccscccscccscscsccccsccccscccccccccccccscccscsc"
           inkscape:label="leaves" /><path
           sodipodi:type="star"
           style="display:inline;fill:#ffffff;fill-opacity:1;stroke-width:0.264583"
           id="path12"
           inkscape:flatsided="false"
           sodipodi:sides="4"
           sodipodi:cx="32.258499"
           sodipodi:cy="13.204362"
           sodipodi:r1="0.91147625"
           sodipodi:r2="0.56736588"
           sodipodi:arg1="0"
           sodipodi:arg2="0.78539816"
           inkscape:rounded="0.1"
           inkscape:randomized="0"
           d="m 33.169975,13.204362 c 0,0.06491 -0.464388,0.355289 -0.510288,0.401188 -0.0459,0.0459 -0.336277,0.510288 -0.401188,0.510288 -0.06491,0 -0.355289,-0.464389 -0.401188,-0.510288 -0.0459,-0.0459 -0.510288,-0.336277 -0.510288,-0.401188 0,-0.06491 0.464389,-0.355289 0.510288,-0.401188 0.0459,-0.0459 0.336277,-0.510288 0.401188,-0.510288 0.06491,0 0.355289,0.464389 0.401188,0.510288 0.0459,0.0459 0.510288,0.336277 0.510288,0.401188 z"
           inkscape:label="star"
           transform="translate(0.01051783,-1.6396024)" /><path
           sodipodi:type="star"
           style="display:inline;fill:#ffffff;fill-opacity:1;stroke-width:0.264583"
           id="path13"
           inkscape:flatsided="false"
           sodipodi:sides="4"
           sodipodi:cx="32.258499"
           sodipodi:cy="13.204362"
           sodipodi:r1="0.91147625"
           sodipodi:r2="0.56736588"
           sodipodi:arg1="0"
           sodipodi:arg2="0.78539816"
           inkscape:rounded="0.1"
           inkscape:randomized="0"
           d="m 33.169975,13.204362 c 0,0.06491 -0.464388,0.355289 -0.510288,0.401188 -0.0459,0.0459 -0.336277,0.510288 -0.401188,0.510288 -0.06491,0 -0.355289,-0.464389 -0.401188,-0.510288 -0.0459,-0.0459 -0.510288,-0.336277 -0.510288,-0.401188 0,-0.06491 0.464389,-0.355289 0.510288,-0.401188 0.0459,-0.0459 0.336277,-0.510288 0.401188,-0.510288 0.06491,0 0.355289,0.464389 0.401188,0.510288 0.0459,0.0459 0.510288,0.336277 0.510288,0.401188 z"
           inkscape:label="star"
           transform="matrix(1.1090438,0,0,1.1090438,-0.6132878,15.967517)" /><path
           sodipodi:type="star"
           style="display:inline;fill:#ffffff;fill-opacity:1;stroke-width:0.264583"
           id="path14"
           inkscape:flatsided="false"
           sodipodi:sides="4"
           sodipodi:cx="32.258499"
           sodipodi:cy="13.204362"
           sodipodi:r1="0.91147625"
           sodipodi:r2="0.56736588"
           sodipodi:arg1="0"
           sodipodi:arg2="0.78539816"
           inkscape:rounded="0.1"
           inkscape:randomized="0"
           d="m 33.169975,13.204362 c 0,0.06491 -0.464388,0.355289 -0.510288,0.401188 -0.0459,0.0459 -0.336277,0.510288 -0.401188,0.510288 -0.06491,0 -0.355289,-0.464389 -0.401188,-0.510288 -0.0459,-0.0459 -0.510288,-0.336277 -0.510288,-0.401188 0,-0.06491 0.464389,-0.355289 0.510288,-0.401188 0.0459,-0.0459 0.336277,-0.510288 0.401188,-0.510288 0.06491,0 0.355289,0.464389 0.401188,0.510288 0.0459,0.0459 0.510288,0.336277 0.510288,0.401188 z"
           inkscape:label="star"
           transform="matrix(1.1282869,0,0,1.1282869,12.617875,26.227933)" /><path
           sodipodi:type="star"
           style="display:inline;fill:#ffffff;fill-opacity:1;stroke-width:0.264583"
           id="path15"
           inkscape:flatsided="false"
           sodipodi:sides="4"
           sodipodi:cx="32.258499"
           sodipodi:cy="13.204362"
           sodipodi:r1="0.91147625"
           sodipodi:r2="0.56736588"
           sodipodi:arg1="0"
           sodipodi:arg2="0.78539816"
           inkscape:rounded="0.1"
           inkscape:randomized="0"
           d="m 33.169975,13.204362 c 0,0.06491 -0.464388,0.355289 -0.510288,0.401188 -0.0459,0.0459 -0.336277,0.510288 -0.401188,0.510288 -0.06491,0 -0.355289,-0.464389 -0.401188,-0.510288 -0.0459,-0.0459 -0.510288,-0.336277 -0.510288,-0.401188 0,-0.06491 0.464389,-0.355289 0.510288,-0.401188 0.0459,-0.0459 0.336277,-0.510288 0.401188,-0.510288 0.06491,0 0.355289,0.464389 0.401188,0.510288 0.0459,0.0459 0.510288,0.336277 0.510288,0.401188 z"
           inkscape:label="star"
           transform="matrix(0.76266933,0,0,0.76266933,27.603743,33.847677)" /><path
           sodipodi:type="star"
           style="display:inline;fill:#ffffff;fill-opacity:1;stroke-width:0.264583"
           id="path16"
           inkscape:flatsided="false"
           sodipodi:sides="4"
           sodipodi:cx="32.258499"
           sodipodi:cy="13.204362"
           sodipodi:r1="0.91147625"
           sodipodi:r2="0.56736588"
           sodipodi:arg1="0"
           sodipodi:arg2="0.78539816"
           inkscape:rounded="0.1"
           inkscape:randomized="0"
           d="m 33.169975,13.204362 c 0,0.06491 -0.464388,0.355289 -0.510288,0.401188 -0.0459,0.0459 -0.336277,0.510288 -0.401188,0.510288 -0.06491,0 -0.355289,-0.464389 -0.401188,-0.510288 -0.0459,-0.0459 -0.510288,-0.336277 -0.510288,-0.401188 0,-0.06491 0.464389,-0.355289 0.510288,-0.401188 0.0459,-0.0459 0.336277,-0.510288 0.401188,-0.510288 0.06491,0 0.355289,0.464389 0.401188,0.510288 0.0459,0.0459 0.510288,0.336277 0.510288,0.401188 z"
           inkscape:label="star"
           transform="matrix(0.56125789,0,0,0.56125789,31.839657,38.728864)" /><path
           sodipodi:type="star"
           style="display:inline;fill:#ffffff;fill-opacity:1;stroke-width:0.264583"
           id="path17"
           inkscape:flatsided="false"
           sodipodi:sides="4"
           sodipodi:cx="32.258499"
           sodipodi:cy="13.204362"
           sodipodi:r1="0.91147625"
           sodipodi:r2="0.56736588"
           sodipodi:arg1="0"
           sodipodi:arg2="0.78539816"
           inkscape:rounded="0.1"
           inkscape:randomized="0"
           d="m 33.169975,13.204362 c 0,0.06491 -0.464388,0.355289 -0.510288,0.401188 -0.0459,0.0459 -0.336277,0.510288 -0.401188,0.510288 -0.06491,0 -0.355289,-0.464389 -0.401188,-0.510288 -0.0459,-0.0459 -0.510288,-0.336277 -0.510288,-0.401188 0,-0.06491 0.464389,-0.355289 0.510288,-0.401188 0.0459,-0.0459 0.336277,-0.510288 0.401188,-0.510288 0.06491,0 0.355289,0.464389 0.401188,0.510288 0.0459,0.0459 0.510288,0.336277 0.510288,0.401188 z"
           inkscape:label="star"
           transform="matrix(0.67750547,0,0,0.67750547,-10.441077,37.354007)" /><path
           sodipodi:type="star"
           style="display:inline;fill:#ffffff;fill-opacity:1;stroke-width:0.264583"
           id="path18"
           inkscape:flatsided="false"
           sodipodi:sides="4"
           sodipodi:cx="32.258499"
           sodipodi:cy="13.204362"
           sodipodi:r1="0.91147625"
           sodipodi:r2="0.56736588"
           sodipodi:arg1="0"
           sodipodi:arg2="0.78539816"
           inkscape:rounded="0.1"
           inkscape:randomized="0"
           d="m 33.169975,13.204362 c 0,0.06491 -0.464388,0.355289 -0.510288,0.401188 -0.0459,0.0459 -0.336277,0.510288 -0.401188,0.510288 -0.06491,0 -0.355289,-0.464389 -0.401188,-0.510288 -0.0459,-0.0459 -0.510288,-0.336277 -0.510288,-0.401188 0,-0.06491 0.464389,-0.355289 0.510288,-0.401188 0.0459,-0.0459 0.336277,-0.510288 0.401188,-0.510288 0.06491,0 0.355289,0.464389 0.401188,0.510288 0.0459,0.0459 0.510288,0.336277 0.510288,0.401188 z"
           inkscape:label="star"
           transform="matrix(0.71776893,0,0,0.71776893,-12.52911,32.817112)" /><path
           sodipodi:type="star"
           style="display:inline;fill:#ffffff;fill-opacity:1;stroke-width:0.264583"
           id="path19"
           inkscape:flatsided="false"
           sodipodi:sides="4"
           sodipodi:cx="32.258499"
           sodipodi:cy="13.204362"
           sodipodi:r1="0.91147625"
           sodipodi:r2="0.56736588"
           sodipodi:arg1="0"
           sodipodi:arg2="0.78539816"
           inkscape:rounded="0.1"
           inkscape:randomized="0"
           d="m 33.169975,13.204362 c 0,0.06491 -0.464388,0.355289 -0.510288,0.401188 -0.0459,0.0459 -0.336277,0.510288 -0.401188,0.510288 -0.06491,0 -0.355289,-0.464389 -0.401188,-0.510288 -0.0459,-0.0459 -0.510288,-0.336277 -0.510288,-0.401188 0,-0.06491 0.464389,-0.355289 0.510288,-0.401188 0.0459,-0.0459 0.336277,-0.510288 0.401188,-0.510288 0.06491,0 0.355289,0.464389 0.401188,0.510288 0.0459,0.0459 0.510288,0.336277 0.510288,0.401188 z"
           inkscape:label="star"
           transform="matrix(0.73059761,0,0,0.73059761,-3.3459519,27.88006)" /><path
           sodipodi:type="star"
           style="display:inline;fill:#ffffff;fill-opacity:1;stroke-width:0.264583"
           id="path20"
           inkscape:flatsided="false"
           sodipodi:sides="4"
           sodipodi:cx="32.258499"
           sodipodi:cy="13.204362"
           sodipodi:r1="0.91147625"
           sodipodi:r2="0.56736588"
           sodipodi:arg1="0"
           sodipodi:arg2="0.78539816"
           inkscape:rounded="0.1"
           inkscape:randomized="0"
           d="m 33.169975,13.204362 c 0,0.06491 -0.464388,0.355289 -0.510288,0.401188 -0.0459,0.0459 -0.336277,0.510288 -0.401188,0.510288 -0.06491,0 -0.355289,-0.464389 -0.401188,-0.510288 -0.0459,-0.0459 -0.510288,-0.336277 -0.510288,-0.401188 0,-0.06491 0.464389,-0.355289 0.510288,-0.401188 0.0459,-0.0459 0.336277,-0.510288 0.401188,-0.510288 0.06491,0 0.355289,0.464389 0.401188,0.510288 0.0459,0.0459 0.510288,0.336277 0.510288,0.401188 z"
           inkscape:label="star"
           transform="matrix(0.74663347,0,0,0.74663347,-1.0355964,13.06052)" /><path
           sodipodi:type="star"
           style="display:inline;fill:#ffffff;fill-opacity:1;stroke-width:0.264583"
           id="path21"
           inkscape:flatsided="false"
           sodipodi:sides="4"
           sodipodi:cx="32.258499"
           sodipodi:cy="13.204362"
           sodipodi:r1="0.91147625"
           sodipodi:r2="0.56736588"
           sodipodi:arg1="0"
           sodipodi:arg2="0.78539816"
           inkscape:rounded="0.1"
           inkscape:randomized="0"
           d="m 33.169975,13.204362 c 0,0.06491 -0.464388,0.355289 -0.510288,0.401188 -0.0459,0.0459 -0.336277,0.510288 -0.401188,0.510288 -0.06491,0 -0.355289,-0.464389 -0.401188,-0.510288 -0.0459,-0.0459 -0.510288,-0.336277 -0.510288,-0.401188 0,-0.06491 0.464389,-0.355289 0.510288,-0.401188 0.0459,-0.0459 0.336277,-0.510288 0.401188,-0.510288 0.06491,0 0.355289,0.464389 0.401188,0.510288 0.0459,0.0459 0.510288,0.336277 0.510288,0.401188 z"
           inkscape:label="star"
           transform="matrix(0.80756972,0,0,0.80756972,-1.3742144,9.4299089)" /><path
           sodipodi:type="star"
           style="display:inline;fill:#ffffff;fill-opacity:1;stroke-width:0.264583"
           id="path22"
           inkscape:flatsided="false"
           sodipodi:sides="4"
           sodipodi:cx="32.258499"
           sodipodi:cy="13.204362"
           sodipodi:r1="0.91147625"
           sodipodi:r2="0.56736588"
           sodipodi:arg1="0"
           sodipodi:arg2="0.78539816"
           inkscape:rounded="0.1"
           inkscape:randomized="0"
           d="m 33.169975,13.204362 c 0,0.06491 -0.464388,0.355289 -0.510288,0.401188 -0.0459,0.0459 -0.336277,0.510288 -0.401188,0.510288 -0.06491,0 -0.355289,-0.464389 -0.401188,-0.510288 -0.0459,-0.0459 -0.510288,-0.336277 -0.510288,-0.401188 0,-0.06491 0.464389,-0.355289 0.510288,-0.401188 0.0459,-0.0459 0.336277,-0.510288 0.401188,-0.510288 0.06491,0 0.355289,0.464389 0.401188,0.510288 0.0459,0.0459 0.510288,0.336277 0.510288,0.401188 z"
           inkscape:label="star"
           transform="matrix(0.79589687,0,0,0.79589687,12.680924,10.536859)" /><path
           sodipodi:type="star"
           style="display:inline;fill:#ffffff;fill-opacity:1;stroke-width:0.264583"
           id="path23"
           inkscape:flatsided="false"
           sodipodi:sides="4"
           sodipodi:cx="32.258499"
           sodipodi:cy="13.204362"
           sodipodi:r1="0.91147625"
           sodipodi:r2="0.56736588"
           sodipodi:arg1="0"
           sodipodi:arg2="0.78539816"
           inkscape:rounded="0.1"
           inkscape:randomized="0"
           d="m 33.169975,13.204362 c 0,0.06491 -0.464388,0.355289 -0.510288,0.401188 -0.0459,0.0459 -0.336277,0.510288 -0.401188,0.510288 -0.06491,0 -0.355289,-0.464389 -0.401188,-0.510288 -0.0459,-0.0459 -0.510288,-0.336277 -0.510288,-0.401188 0,-0.06491 0.464389,-0.355289 0.510288,-0.401188 0.0459,-0.0459 0.336277,-0.510288 0.401188,-0.510288 0.06491,0 0.355289,0.464389 0.401188,0.510288 0.0459,0.0459 0.510288,0.336277 0.510288,0.401188 z"
           inkscape:label="star"
           transform="matrix(0.75507624,0,0,0.75507624,13.402666,22.920609)" /><path
           style="display:inline;fill:#865a0e;fill-opacity:1;stroke:none;stroke-width:0.3;stroke-dasharray:none;stroke-opacity:1"
           d="m 31.782737,47.723081 c 0.50056,-0.02006 1.723478,0.208514 1.32978,-0.974904 -0.380751,-1.144498 -0.891799,-0.868088 -1.585787,-0.836014 -1.090451,0.05039 -1.132469,0.256209 -1.125309,0.909569 0.0072,0.653361 0.08842,0.953048 1.381316,0.901349 z"
           id="path42"
           sodipodi:nodetypes="sssss"
           inkscape:label="stone" /><path
           style="display:inline;fill:#865a0e;fill-opacity:1;stroke:none;stroke-width:0.3;stroke-dasharray:none;stroke-opacity:1"
           d="m 34.905642,46.393346 c 1.434113,0.06701 1.525343,-0.175099 1.537815,-0.602541 0.0259,-0.887374 -0.758716,-0.895898 -1.288713,-0.913244 -0.731617,-0.02395 -1.234074,0.358684 -1.300718,0.856068 -0.06665,0.497384 0.107127,0.61558 1.051616,0.659717 z"
           id="path43"
           inkscape:label="stone"
           sodipodi:nodetypes="ssszs" /><path
           style="display:inline;fill:#865a0e;fill-opacity:1;stroke:none;stroke-width:0.3;stroke-dasharray:none;stroke-opacity:1"
           d="m 36.315154,44.635703 c 0.487127,0.08846 0.959887,-0.120446 0.795775,-0.579807 -0.08493,-0.23771 -0.044,-0.542025 -0.47032,-0.711434 -0.126884,-0.05041 -1.558323,-4.02e-4 -1.53083,0.539085 0.04152,0.814731 0.577933,0.638221 1.205375,0.752156 z"
           id="path44"
           inkscape:label="stone"
           sodipodi:nodetypes="sssss" /><path
           style="display:inline;fill:#865a0e;fill-opacity:1;stroke:none;stroke-width:0.3;stroke-dasharray:none;stroke-opacity:1"
           d="m 27.472801,46.889098 c 0.82928,0.174732 1.374007,0.482261 1.78319,-0.631425 0.146518,-0.398782 -0.214153,-0.724964 -0.454002,-0.789573 -0.455526,-0.122708 -1.077015,-0.110809 -1.74429,0.333545 -0.561974,0.374231 -0.5627,0.881427 0.415102,1.087453 z"
           id="path45"
           inkscape:label="stone"
           sodipodi:nodetypes="sssss" /><path
           style="display:inline;fill:#865a0e;fill-opacity:1;stroke:none;stroke-width:0.3;stroke-dasharray:none;stroke-opacity:1"
           d="m 25.981939,45.263765 c 0.642129,0.07275 1.256466,0.01109 1.262848,-0.590499 0.0051,-0.479735 -0.296246,-0.595412 -1.292081,-0.777587 -0.363535,-0.0665 -0.650322,0.196821 -0.812666,0.537879 -0.355367,0.746569 0.27181,0.765618 0.841899,0.830207 z"
           id="path46"
           inkscape:label="stone"
           sodipodi:nodetypes="sssss" /><path
           style="display:inline;fill:#865a0e;fill-opacity:1;stroke:none;stroke-width:0.3;stroke-dasharray:none;stroke-opacity:1"
           d="m 26.835531,43.743669 c -0.620417,-0.02089 -0.668896,-0.247645 -0.657734,-0.53788 0.01525,-0.39645 0.240997,-0.507551 0.634347,-0.491108 0.466442,0.0195 0.747403,0.454667 0.760046,0.736663 0.0086,0.191815 -9.91e-4,0.317091 -0.736659,0.292325 z"
           id="path47"
           inkscape:label="stone"
           sodipodi:nodetypes="sssss" /><path
           style="display:inline;fill:#fb010a;fill-opacity:1;stroke-width:0.264583"
           d="M 25.91263,42.564843 27.806642,44.560912 31,45.824435 34.511588,44.598827 36.46289,42.564843 c -0.203473,-1.771782 -1.191604,-3.69355 -2.384026,-4.579241 0.05299,0.499205 0.05864,0.962906 0.02344,1.395973 -1.405509,-1.683539 -2.375886,-3.722121 -2.903867,-6.721952 -0.929568,1.707165 -1.616541,3.578929 -1.92891,5.506523 -0.211326,-0.424077 -0.426734,-0.833576 -0.487826,-1.794206 -0.354432,0.700041 -0.549406,1.298644 -0.559818,1.811602 -0.01162,0.572442 -0.119498,1.116579 -0.672148,2.09927 z"
           id="path29"
           inkscape:label="campfire r"
           sodipodi:nodetypes="ccccccccccscc" /><path
           style="display:inline;fill:#ffae00;fill-opacity:1;stroke-width:0.264583"
           d="M 27.553874,42.395345 29.524538,45.240636 31,45.824435 l 1.962996,-0.685121 2.257532,-2.5538 c -0.198782,-0.748355 -0.751527,-1.319147 -1.538457,-2.148544 -0.870927,-0.917926 -2.828661,-1.825393 -2.52738,-4.354418 -0.595194,0.389274 -1.020383,1.830295 -1.107942,2.265494 -0.09407,0.467545 0.04483,1.645878 -0.388608,2.629298 -0.411536,-0.521451 -0.49189,-1.20957 -0.463021,-2.042253 -0.406131,1.312552 -0.883411,2.741202 -1.641246,3.460254 z"
           id="path28"
           inkscape:label="campfire y"
           sodipodi:nodetypes="cccccscsccc" /><path
           id="path38"
           style="display:inline;fill:#ffffff;fill-opacity:1;stroke-width:0.264583"
           inkscape:label="campfire w"
           d="m 30.916976,39.393978 c 0.173875,1.205985 -0.17362,1.849383 -0.458887,2.307869 -0.334545,0.537693 -1.013196,1.261528 -1.031978,1.634009 -0.01625,0.322157 0.622701,1.626257 0.622701,1.626257 h 5.17e-4 l 0.960664,0.379822 1.383379,-0.482141 c 0.445874,-0.631098 0.877602,-1.075591 0.958435,-2.006301 0.0953,-1.097281 -1.068153,-2.524032 -2.434831,-3.459515 z"
           sodipodi:nodetypes="cssccccsc" /><path
           style="display:inline;fill:#fb010a;fill-opacity:1;stroke-width:0.264583"
           d="m 30.907546,29.237852 c 0,0 0.73908,-1.135776 1.014457,-1.751809 0.416175,-0.931005 0.01597,-0.923668 0.950277,-2.908043 L 32.325412,23.457791 31,22.824278 29.782176,23.457791 29.180638,24.578 c 0.485261,2.324622 1.177335,1.853521 1.726908,4.659852 z"
           id="path35"
           sodipodi:nodetypes="cscccccc"
           inkscape:label="exhaust r" /><path
           id="path37"
           style="display:inline;fill:#ffae00;fill-opacity:1;stroke-width:0.264583"
           inkscape:label="exhaust y"
           d="m 31,22.824278 -0.608912,0.316756 -0.59239,1.48382 c 0.212482,0.903738 0.428416,1.325536 0.713135,1.817977 0.186606,0.322749 0.386556,0.77312 0.581876,1.342037 0.136001,-0.235603 0.236393,-0.369907 0.308509,-0.531234 0.180656,-0.404137 0.165891,-0.531797 0.242362,-0.933793 0.06563,-0.345004 0.275605,-0.933865 0.613399,-1.703255 l -0.595273,-1.475552 z"
           sodipodi:nodetypes="cccscssccc" /><path
           id="path39"
           style="display:inline;fill:#ffffff;fill-opacity:1;stroke-width:0.264583"
           inkscape:label="exhaust w"
           d="m 30.80673,23.613894 -0.485119,0.813478 c 0.173349,1.231298 0.617133,0.813586 0.787768,1.949377 0.107227,-0.651741 0.553943,-0.916428 0.568625,-1.949377 L 31.19327,23.613894 Z"
           sodipodi:nodetypes="cccccc" /><path
           id="rect39"
           style="fill:#fcf0db;stroke-width:0.217697"
           d="m 29.95,21.70906 h 2.1 l 0.250001,0.89874 h -2.6 z"
           sodipodi:nodetypes="ccccc"
           inkscape:label="rocket nozzle" /><path
           id="rect40"
           d="m 28.1332,16.701028 c -0.07052,0.395381 -0.673452,3.775727 -0.673452,3.775727 h 7.080504 c 0,0 -0.603441,-3.383206 -0.673453,-3.775727 -0.07001,-0.392521 -0.645927,-2.05879 -2.844403,-2.05879 -2.198477,0 -2.818674,1.663409 -2.889196,2.05879 z"
           style="fill:#ffae01;fill-opacity:1;stroke:none;stroke-width:0.3;stroke-dasharray:none;stroke-opacity:1"
           sodipodi:nodetypes="zcczzz"
           inkscape:label="window" /><path
           id="path40"
           style="display:inline;fill:#fcf0db;stroke-width:0.217697"
           inkscape:label="hull"
           d="m 27.850496,17.400489 -0.205155,1.138949 c 0.0088,-2.73e-4 0.01745,-0.0016 0.02636,-0.0016 0.46944,0 0.850077,0.380636 0.850077,0.850078 0,0.46944 -0.380637,0.850077 -0.850077,0.850077 -0.113492,0 -0.221413,-0.02268 -0.320394,-0.06304 l -0.134875,0.748274 c 0.337902,0.18327 1.300986,0.452169 1.685685,0.452169 h 2.098063 2.097546 c 0.384699,0 1.347782,-0.268899 1.685686,-0.452169 l -0.134876,-0.748274 c -0.09887,0.04026 -0.20705,0.06304 -0.320394,0.06304 -0.46944,0 -0.850077,-0.380637 -0.850077,-0.850077 0,-0.469442 0.380637,-0.850078 0.850077,-0.850078 0.0089,0 0.01751,0.0013 0.02636,0.0016 l -0.205155,-1.138949 c -0.371254,0.213398 -1.150522,0.47439 -1.664498,0.47439 h -1.484664 -1.485181 c -0.513976,0 -1.293244,-0.260992 -1.664498,-0.47439 z m 3.149679,1.289327 a 0.85000002,0.85000002 0 0 1 0.850077,0.850077 0.85000002,0.85000002 0 0 1 -0.850077,0.850078 0.85000002,0.85000002 0 0 1 -0.850077,-0.850078 0.85000002,0.85000002 0 0 1 0.850077,-0.850077 z" /></g></g><text
       xml:space="preserve"
       style="font-style:normal;font-variant:normal;font-weight:normal;font-stretch:normal;font-size:2.07678px;font-family:'Space Mono';-inkscape-font-specification:'Space Mono';text-align:center;writing-mode:lr-tb;direction:ltr;text-anchor:middle;opacity:0.99;fill:#000000;fill-opacity:1;stroke:#000000;stroke-width:0.178391;stroke-linecap:round;stroke-linejoin:round;stroke-dasharray:none;stroke-opacity:1;paint-order:normal"
       x="3.875735"
       y="4.590107"
       id="text302"><tspan
         sodipodi:role="line"
         id="tspan302"
         style="stroke-width:0.178391"
         x="3.875735"
         y="4.590107">[1]</tspan></text><text
       xml:space="preserve"
       style="font-style:normal;font-variant:normal;font-weight:normal;font-stretch:normal;font-size:2.07678px;font-family:'Space Mono';-inkscape-font-specification:'Space Mono';text-align:center;writing-mode:lr-tb;direction:ltr;text-anchor:middle;opacity:0.99;fill:#000000;fill-opacity:1;stroke:#000000;stroke-width:0.178391;stroke-linecap:round;stroke-linejoin:round;stroke-dasharray:none;stroke-opacity:1;paint-order:normal"
       x="83.964333"
       y="47.718384"
       id="text302-9"><tspan
         sodipodi:role="line"
         id="tspan302-3"
         style="stroke-width:0.178391"
         x="83.964333"
         y="47.718384">[2]</tspan></text><g
       id="g1"
       transform="translate(159.95556,-0.92898235)"><text
         xml:space="preserve"
         style="font-style:normal;font-variant:normal;font-weight:normal;font-stretch:normal;font-size:2.07678px;font-family:'Space Mono';-inkscape-font-specification:'Space Mono';text-align:center;writing-mode:lr-tb;direction:ltr;text-anchor:middle;opacity:0.99;fill:#000000;fill-opacity:1;stroke:#000000;stroke-width:0.178391;stroke-linecap:round;stroke-linejoin:round;stroke-dasharray:none;stroke-opacity:1;paint-order:normal"
         x="3.875735"
         y="4.590107"
         id="text302-6"><tspan
           sodipodi:role="line"
           style="stroke-width:0.178391"
           x="3.8757348"
           y="4.590107"
           id="tspan303">[3]</tspan></text></g></g></svg>
